<svg width="1292" height="1426" xmlns="http://www.w3.org/2000/svg" xmlns:xlink="http://www.w3.org/1999/xlink" overflow="hidden"><defs><clipPath id="clip0"><rect x="16" y="-87" width="1292" height="1426"/></clipPath><clipPath id="clip1"><rect x="51" y="-44" width="1229" height="612"/></clipPath><clipPath id="clip2"><rect x="51" y="-44" width="1229" height="612"/></clipPath><clipPath id="clip3"><rect x="51" y="-44" width="1229" height="612"/></clipPath><clipPath id="clip4"><rect x="51" y="-44" width="1229" height="612"/></clipPath><clipPath id="clip5"><rect x="51" y="632" width="1229" height="685"/></clipPath><clipPath id="clip6"><rect x="51" y="632" width="1229" height="685"/></clipPath><clipPath id="clip7"><rect x="51" y="632" width="1229" height="685"/></clipPath><clipPath id="clip8"><rect x="51" y="632" width="1229" height="685"/></clipPath></defs><g clip-path="url(#clip0)" transform="translate(-16 87)"><g clip-path="url(#clip1)"><g clip-path="url(#clip2)"><g clip-path="url(#clip3)"><g clip-path="url(#clip4)"><path d="M52.5001-42.4999 1279.5-42.4999 1279.5 567.5 52.5001 567.5Z" stroke="#000000" stroke-width="1.33333" stroke-miterlimit="8" fill="#FFFFFF"/><path d="M64.5001 291.5 1216.23 291.5 1216.23 291.5 1269.5 325.5 1216.23 359.5 1216.23 359.5 64.5001 359.5 117.766 325.5Z" stroke="#000000" stroke-width="3" stroke-miterlimit="8" fill="none" fill-rule="evenodd"/><text font-family="Times New Roman,Times New Roman_MSFontService,sans-serif" font-weight="400" font-size="24" transform="translate(220.765 323)">Radiologic</text><text font-family="Times New Roman,Times New Roman_MSFontService,sans-serif" font-weight="400" font-size="24" transform="translate(227.431 352)">Response</text><path d="M280.5 292.443 280.5 192.5" stroke="#000000" stroke-width="3" stroke-miterlimit="8" fill="none" fill-rule="evenodd"/><path d="M274.5 185 279.5 176.5 284.5 185 279.5 193.5Z" stroke="#000000" stroke-width="3" stroke-miterlimit="8" fill="none" fill-rule="evenodd"/><text fill="#454545" font-family="Times New Roman,Times New Roman_MSFontService,sans-serif" font-weight="400" font-size="24" transform="translate(167.462 126)">Δ</text><text fill="#454545" font-family="Times New Roman,Times New Roman_MSFontService,sans-serif" font-weight="400" font-size="24" transform="translate(182.462 126)">D and</text><text fill="#454545" font-family="Times New Roman,Times New Roman_MSFontService,sans-serif" font-weight="400" font-size="24" transform="translate(246.462 126)">Δ</text><text fill="#454545" font-family="Times New Roman,Times New Roman_MSFontService,sans-serif" font-weight="400" font-size="24" transform="translate(261.462 126)">V at the early</text><text fill="#454545" font-family="Times New Roman,Times New Roman_MSFontService,sans-serif" font-weight="400" font-size="24" transform="translate(206.082 155)">treatment</text><text fill="#454545" font-family="Times New Roman,Times New Roman_MSFontService,sans-serif" font-weight="400" font-size="24" transform="translate(302.749 155)">stage</text><text font-family="Times New Roman,Times New Roman_MSFontService,sans-serif" font-weight="400" font-size="24" transform="translate(471.067 321)">Pathologic</text><text font-family="Times New Roman,Times New Roman_MSFontService,sans-serif" font-weight="400" font-size="24" transform="translate(476.4 350)">Response</text><path d="M0 0 0.000104987 183.652" stroke="#000000" stroke-width="3" stroke-miterlimit="8" fill="none" fill-rule="evenodd" transform="matrix(1 0 0 -1 523.5 292.152)"/><path d="M518.5 99 523 90.5 527.5 99 523 107.5Z" stroke="#000000" stroke-width="3" stroke-miterlimit="8" fill="none" fill-rule="evenodd"/><text fill="#454545" font-family="Times New Roman,Times New Roman_MSFontService,sans-serif" font-weight="400" font-size="24" transform="translate(471.194 68)">MPR</text><text fill="#454545" font-family="Times New Roman,Times New Roman_MSFontService,sans-serif" font-weight="400" font-size="24" transform="translate(522.194 68)">/</text><text fill="#454545" font-family="Times New Roman,Times New Roman_MSFontService,sans-serif" font-weight="400" font-size="24" transform="translate(529.194 68)">CPR</text><text font-family="Times New Roman,Times New Roman_MSFontService,sans-serif" font-weight="400" font-size="24" transform="translate(728.702 321)">Overall</text><text font-family="Times New Roman,Times New Roman_MSFontService,sans-serif" font-weight="400" font-size="24" transform="translate(724.035 350)">Surviva</text><text font-family="Times New Roman,Times New Roman_MSFontService,sans-serif" font-weight="400" font-size="24" transform="translate(798.702 350)">l</text><path d="M0 0 0.000104987 263.136" stroke="#000000" stroke-width="3" stroke-miterlimit="8" fill="none" fill-rule="evenodd" transform="matrix(1 0 0 -1 760.5 292.637)"/><path d="M755.5 21 760.5 12.5 765.5 21 760.5 29.5Z" stroke="#385723" stroke-width="3" stroke-miterlimit="8" fill="none" fill-rule="evenodd"/><text fill="#454545" font-family="Times New Roman,Times New Roman_MSFontService,sans-serif" font-weight="400" font-size="24" transform="translate(744.654 2)">OS</text><path d="M274.989 359.53 275.676 365.093 275.589 364.741 277.714 370.304 277.594 370.059 280.906 375.496 280.763 375.299 285.325 380.612 285.204 380.486 290.829 385.674 290.703 385.57 297.391 390.507 297.29 390.439 304.853 395.127 304.749 395.068 313.124 399.38 313.051 399.345 322.114 403.408 322.023 403.371 331.773 406.996 331.693 406.968 342.005 410.156 341.926 410.134 352.676 412.821 352.603 412.805 363.666 414.993 363.587 414.979 374.962 416.604 374.879 416.595 386.442 417.595 386.353 417.59 398.04 417.902 397.952 417.902 409.639 417.527 409.558 417.532 421.121 416.532 421.03 416.543 432.405 414.855 432.326 414.869 443.389 412.619 443.308 412.638 454.058 409.825 453.979 409.848 464.291 406.536 464.212 406.564 473.962 402.814 473.874 402.851 482.999 398.663 482.911 398.707 491.223 394.207 491.125 394.266 498.687 389.391 498.588 389.461 505.275 384.336 505.158 384.436 510.783 379.124 510.653 379.263 515.215 373.7 515.082 373.89 518.395 368.265 518.255 368.582 519.551 364.407 522.416 365.297 521.068 369.638 517.609 375.513 512.912 381.239 507.161 386.67 500.364 391.879 492.702 396.818 484.296 401.369 475.083 405.597 465.249 409.379 454.857 412.717 444.027 415.551 432.885 417.817 421.425 419.517 409.776 420.525 398.004 420.902 386.228 420.587 374.579 419.58 363.123 417.943 351.985 415.741 341.159 413.034 330.767 409.822 320.931 406.165 311.787 402.066 303.323 397.708 295.658 392.957 288.856 387.935 283.106 382.633 278.408 377.161 274.96 371.502 272.721 365.642 272.011 359.898ZM516.276 365.431 522.469 357.5 525.098 367.213Z"/><path d="M0.146832-1.4928 4.0862-1.10532 8.19218 0.0205164 12.2036 1.79605 16.1806 4.27353 20.0545 7.37263 23.9024 11.0923 27.6639 15.4275 31.3453 20.2515 34.9537 25.6324 38.4893 31.5041 41.9589 37.8755 45.2956 44.7379 48.564 51.9661 51.7712 59.701 54.787 67.8059 57.7381 76.3453 63.3187 94.3413 68.2726 113.655 72.6602 133.963 76.3575 155.27 79.3648 177.198 81.6207 199.757 82.9366 222.628 83.4378 245.685 82.9991 268.747 81.6207 291.616 79.4906 314.108 76.5456 336.101 72.9114 357.343 68.6493 377.713 63.7587 397.025 58.3663 415.02 55.4756 423.504 52.4623 431.602 49.3837 439.33 46.1752 446.627 42.9002 453.429 39.4979 459.793 36.0884 465.665 32.5399 471.051 28.9256 475.87 25.2947 480.202 21.5688 483.927 17.7527 487.032 13.7939 489.539 9.75956 491.032 8.7186 488.218 12.6045 486.781 12.3224 486.92 16.0724 484.545 15.9284 484.649 19.6159 481.649 19.5018 481.752 23.1268 478.127 23.0379 478.224 26.6004 473.974 26.55 474.037 30.1125 469.287 30.0599 469.362 33.5599 464.05 33.5153 464.122 36.8903 458.309 36.8647 458.355 40.2397 452.043 40.211 452.099 43.461 445.349 43.4394 445.396 46.6269 438.146 46.6065 438.195 49.669 430.507 49.6567 430.539 52.6567 422.477 52.6427 422.516 55.5177 414.079 55.5006 414.132 60.8756 396.194 60.8584 396.257 65.7334 377.007 65.7193 377.068 69.9693 356.755 69.959 356.81 73.584 335.622 73.5758 335.676 76.5133 313.738 76.5067 313.796 78.6317 291.359 78.6277 291.41 80.0027 268.597 80.0003 268.659 80.4378 245.659 80.4379 245.72 79.9379 222.72 79.94 222.774 78.6275 199.961 78.6324 200.024 76.3824 177.524 76.3889 177.579 73.3889 155.704 73.3971 155.756 69.7096 134.506 69.7213 134.567 65.3463 114.317 65.3595 114.373 60.422 95.1227 60.4423 95.1943 54.8798 77.2568 54.8948 77.3024 51.9573 68.8024 51.9692 68.8356 48.9692 60.7731 48.9894 60.8245 45.8019 53.137 45.8207 53.1805 42.5707 45.993 42.5885 46.0309 39.276 39.2184 39.3077 39.2799 35.8702 32.9674 35.9025 33.0238 32.4025 27.2113 32.4417 27.2729 28.8792 21.9604 28.9326 22.035 25.3076 17.285 25.367 17.358 21.6795 13.108 21.77 13.2035 18.02 9.57848 18.1255 9.6713 14.3755 6.6713 14.5194 6.77317 10.7069 4.39817 10.8929 4.49664 7.08038 2.80914 7.29085 2.88411 3.41585 1.82161 3.66567 1.8678-0.146832 1.4928ZM11.6897 493.686 1.92178 491.27 9.71536 484.906Z" transform="matrix(1.83697e-16 1 1 -1.83697e-16 273.5 359.5)"/><text font-family="Cambria Math,Cambria Math_MSFontService,sans-serif" font-weight="400" font-size="24" transform="translate(415.706 411)">①</text><text font-family="Cambria Math,Cambria Math_MSFontService,sans-serif" font-weight="400" font-size="24" transform="translate(557.179 434)">②</text><text fill="#191919" font-family="SimSun,SimSun_MSFontService,sans-serif" font-weight="700" font-size="24" transform="translate(74.1521 501)">①</text><text fill="#191919" font-family="Times New Roman,Times New Roman_MSFontService,sans-serif" font-weight="700" font-size="24" transform="translate(98.3188 501)">The relationship between</text><text fill="#191919" font-family="Times New Roman,Times New Roman_MSFontService,sans-serif" font-weight="700" font-size="24" transform="translate(362.552 501)">CT RECIST response</text><text fill="#191919" font-family="Times New Roman,Times New Roman_MSFontService,sans-serif" font-weight="700" font-size="24" transform="translate(591.252 501)">at</text><text fill="#191919" font-family="Times New Roman,Times New Roman_MSFontService,sans-serif" font-weight="700" font-size="24" transform="translate(74.1521 530)">the early treatment stage and the pathologic response</text><text fill="#191919" font-family="Times New Roman,Times New Roman_MSFontService,sans-serif" font-weight="700" font-size="24" transform="translate(620.152 530)">.</text><text fill="#191919" font-family="SimSun,SimSun_MSFontService,sans-serif" font-weight="700" font-size="24" transform="translate(729.056 501)">②</text><text fill="#191919" font-family="Times New Roman,Times New Roman_MSFontService,sans-serif" font-weight="700" font-size="24" transform="translate(753.223 501)">The relationship between</text><text fill="#191919" font-family="Times New Roman,Times New Roman_MSFontService,sans-serif" font-weight="700" font-size="24" transform="translate(1017.46 501)">CT RECIST response</text><text fill="#191919" font-family="Times New Roman,Times New Roman_MSFontService,sans-serif" font-weight="700" font-size="24" transform="translate(729.056 530)">at</text><text fill="#191919" font-family="Times New Roman,Times New Roman_MSFontService,sans-serif" font-weight="700" font-size="24" transform="translate(755.056 530)">the early treatment stage and the survival</text><text fill="#191919" font-family="Times New Roman,Times New Roman_MSFontService,sans-serif" font-weight="700" font-size="24" transform="translate(1180.06 530)">.</text></g></g></g></g><g clip-path="url(#clip5)"><g clip-path="url(#clip6)"><g clip-path="url(#clip7)"><g clip-path="url(#clip8)"><path d="M113.936 83.6974 851.552 83.6974 851.552 219.773 113.936 219.773Z" stroke="#000000" stroke-width="1.07996" stroke-linejoin="round" stroke-miterlimit="10" fill="none" transform="matrix(1 0 0 1.00044 -51.5967 560.691)"/><text font-family="Times New Roman,Times New Roman_MSFontService,sans-serif" font-weight="700" font-size="24" transform="matrix(1.07996 0 0 1.08044 72.3747 673)">To</text><text font-family="Times New Roman,Times New Roman_MSFontService,sans-serif" font-weight="700" font-size="24" transform="matrix(1.07996 0 0 1.08044 106.854 673)">explore</text><text font-family="Times New Roman,Times New Roman_MSFontService,sans-serif" font-weight="700" font-size="24" transform="matrix(1.07996 0 0 1.08044 195.08 673)">the</text><text font-family="Times New Roman,Times New Roman_MSFontService,sans-serif" font-weight="700" font-size="24" transform="matrix(1.07996 0 0 1.08044 236.255 673)">relationship</text><text font-family="Times New Roman,Times New Roman_MSFontService,sans-serif" font-weight="700" font-size="24" transform="matrix(1.07996 0 0 1.08044 374.879 673)">between</text><text font-family="Times New Roman,Times New Roman_MSFontService,sans-serif" font-weight="700" font-size="24" transform="matrix(1.07996 0 0 1.08044 472.213 673)">D</text><text font-family="Times New Roman,Times New Roman_MSFontService,sans-serif" font-weight="700" font-size="24" transform="matrix(1.07996 0 0 1.08044 497.557 673)">and</text><text font-family="Times New Roman,Times New Roman_MSFontService,sans-serif" font-weight="700" font-size="24" transform="matrix(1.07996 0 0 1.08044 545.939 673)">V</text><text font-family="Times New Roman,Times New Roman_MSFontService,sans-serif" font-weight="700" font-size="24" transform="matrix(1.07996 0 0 1.08044 570.814 673)">in</text><text font-family="Times New Roman,Times New Roman_MSFontService,sans-serif" font-weight="700" font-size="24" transform="matrix(1.07996 0 0 1.08044 599.037 673)">the</text><text font-family="Times New Roman,Times New Roman_MSFontService,sans-serif" font-weight="700" font-size="24" transform="matrix(1.07996 0 0 1.08044 640.22 673)">tumor</text><text font-family="Times New Roman,Times New Roman_MSFontService,sans-serif" font-weight="700" font-size="24" transform="matrix(1.07996 0 0 1.08044 715.494 673)">lesions</text><text font-family="Times New Roman,Times New Roman_MSFontService,sans-serif" font-weight="700" font-size="24" transform="matrix(1.07996 0 0 1.08044 788.931 673)">:</text><text font-family="Times New Roman,Times New Roman_MSFontService,sans-serif" font-weight="400" font-size="24" transform="matrix(1.07996 0 0 1.08044 72.3747 736)">916</text><text font-family="Times New Roman,Times New Roman_MSFontService,sans-serif" font-weight="400" font-size="24" transform="matrix(1.07996 0 0 1.08044 127.359 736)">tumor</text><text font-family="Times New Roman,Times New Roman_MSFontService,sans-serif" font-weight="400" font-size="24" transform="matrix(1.07996 0 0 1.08044 205.376 736)">lesions</text><text font-family="Times New Roman,Times New Roman_MSFontService,sans-serif" font-weight="400" font-size="24" transform="matrix(1.07996 0 0 1.08044 293.472 736)">of</text><text font-family="Times New Roman,Times New Roman_MSFontService,sans-serif" font-weight="400" font-size="24" transform="matrix(1.07996 0 0 1.08044 331.17 736)">185</text><text font-family="Times New Roman,Times New Roman_MSFontService,sans-serif" font-weight="400" font-size="24" transform="matrix(1.07996 0 0 1.08044 386.148 736)">patients</text><text font-family="Times New Roman,Times New Roman_MSFontService,sans-serif" font-weight="400" font-size="24" transform="matrix(1.07996 0 0 1.08044 482.883 736)">during</text><text font-family="Times New Roman,Times New Roman_MSFontService,sans-serif" font-weight="400" font-size="24" transform="matrix(1.07996 0 0 1.08044 566.659 736)">the</text><text font-family="Times New Roman,Times New Roman_MSFontService,sans-serif" font-weight="400" font-size="24" transform="matrix(1.07996 0 0 1.08044 614.437 736)">treatments</text><text font-family="Times New Roman,Times New Roman_MSFontService,sans-serif" font-weight="400" font-size="24" transform="matrix(1.07996 0 0 1.08044 738.533 736)">from</text><text font-family="Times New Roman,Times New Roman_MSFontService,sans-serif" font-weight="400" font-size="24" transform="matrix(1.07996 0 0 1.08044 72.3747 767)">December</text><text font-family="Times New Roman,Times New Roman_MSFontService,sans-serif" font-weight="400" font-size="24" transform="matrix(1.07996 0 0 1.08044 185.41 767)">2015</text><text font-family="Times New Roman,Times New Roman_MSFontService,sans-serif" font-weight="400" font-size="24" transform="matrix(1.07996 0 0 1.08044 243.728 767)">to</text><text font-family="Times New Roman,Times New Roman_MSFontService,sans-serif" font-weight="400" font-size="24" transform="matrix(1.07996 0 0 1.08044 270.368 767)">January</text><text font-family="Times New Roman,Times New Roman_MSFontService,sans-serif" font-weight="400" font-size="24" transform="matrix(1.07996 0 0 1.08044 357.485 767)">2022</text><text font-family="Times New Roman,Times New Roman_MSFontService,sans-serif" font-weight="400" font-size="24" transform="matrix(1.07996 0 0 1.08044 415.803 767)">are</text><text font-family="Times New Roman,Times New Roman_MSFontService,sans-serif" font-weight="400" font-size="24" transform="matrix(1.07996 0 0 1.08044 453.962 767)">collected</text><text font-family="Times New Roman,Times New Roman_MSFontService,sans-serif" font-weight="400" font-size="24" transform="matrix(1.07996 0 0 1.08044 547.559 767)">.</text><path d="M113.936 270.531 851.552 270.531 851.552 470.325 113.936 470.325Z" stroke="#000000" stroke-width="1.07996" stroke-linejoin="round" stroke-miterlimit="10" fill="none" transform="matrix(1 0 0 1.00044 -51.5967 560.691)"/><text font-family="Times New Roman,Times New Roman_MSFontService,sans-serif" font-weight="700" font-size="24" transform="matrix(1.07996 0 0 1.08044 72.3747 861)">To</text><text font-family="Times New Roman,Times New Roman_MSFontService,sans-serif" font-weight="700" font-size="24" transform="matrix(1.07996 0 0 1.08044 112.945 861)">explore</text><text font-family="Times New Roman,Times New Roman_MSFontService,sans-serif" font-weight="700" font-size="24" transform="matrix(1.07996 0 0 1.08044 207.262 861)">the</text><text font-family="Times New Roman,Times New Roman_MSFontService,sans-serif" font-weight="700" font-size="24" transform="matrix(1.07996 0 0 1.08044 254.528 861)">relationship</text><text font-family="Times New Roman,Times New Roman_MSFontService,sans-serif" font-weight="700" font-size="24" transform="matrix(1.07996 0 0 1.08044 399.243 861)">between</text><text font-family="Times New Roman,Times New Roman_MSFontService,sans-serif" font-weight="700" font-size="24" transform="matrix(1.07996 0 0 1.08044 502.668 861)">∆</text><text font-family="Times New Roman,Times New Roman_MSFontService,sans-serif" font-weight="700" font-size="24" transform="matrix(1.07996 0 0 1.08044 518.868 861)">D</text><text font-family="Times New Roman,Times New Roman_MSFontService,sans-serif" font-weight="700" font-size="24" transform="matrix(1.07996 0 0 1.08044 549.935 861)">and</text><text font-family="Times New Roman,Times New Roman_MSFontService,sans-serif" font-weight="700" font-size="24" transform="matrix(1.07996 0 0 1.08044 604.401 861)">∆</text><text font-family="Times New Roman,Times New Roman_MSFontService,sans-serif" font-weight="700" font-size="24" transform="matrix(1.07996 0 0 1.08044 620.6 861)">V</text><text font-family="Times New Roman,Times New Roman_MSFontService,sans-serif" font-weight="700" font-size="24" transform="matrix(1.07996 0 0 1.08044 651.199 861)">at</text><text font-family="Times New Roman,Times New Roman_MSFontService,sans-serif" font-weight="700" font-size="24" transform="matrix(1.07996 0 0 1.08044 685.506 861)">the</text><text font-family="Times New Roman,Times New Roman_MSFontService,sans-serif" font-weight="700" font-size="24" transform="matrix(1.07996 0 0 1.08044 732.773 861)">early</text><text font-family="Times New Roman,Times New Roman_MSFontService,sans-serif" font-weight="700" font-size="24" transform="matrix(1.07996 0 0 1.08044 72.3747 892)">treatment</text><text font-family="Times New Roman,Times New Roman_MSFontService,sans-serif" font-weight="700" font-size="24" transform="matrix(1.07996 0 0 1.08044 187.823 892)">stage</text><text font-family="Times New Roman,Times New Roman_MSFontService,sans-serif" font-weight="700" font-size="24" transform="matrix(1.07996 0 0 1.08044 243.981 892)">:</text><text font-family="Times New Roman,Times New Roman_MSFontService,sans-serif" font-weight="400" font-size="24" transform="matrix(1.07996 0 0 1.08044 72.3747 955)">136</text><text font-family="Times New Roman,Times New Roman_MSFontService,sans-serif" font-weight="400" font-size="24" transform="matrix(1.07996 0 0 1.08044 111.253 955)">/</text><text font-family="Times New Roman,Times New Roman_MSFontService,sans-serif" font-weight="400" font-size="24" transform="matrix(1.07996 0 0 1.08044 118.452 955)">185</text><text font-family="Times New Roman,Times New Roman_MSFontService,sans-serif" font-weight="400" font-size="24" transform="matrix(1.07996 0 0 1.08044 164.668 955)">patients</text><text font-family="Times New Roman,Times New Roman_MSFontService,sans-serif" font-weight="400" font-size="24" transform="matrix(1.07996 0 0 1.08044 252.642 955)">(</text><text font-family="Times New Roman,Times New Roman_MSFontService,sans-serif" font-weight="400" font-size="24" transform="matrix(1.07996 0 0 1.08044 261.282 955)">272</text><text font-family="Times New Roman,Times New Roman_MSFontService,sans-serif" font-weight="400" font-size="24" transform="matrix(1.07996 0 0 1.08044 307.497 955)">tumor</text><text font-family="Times New Roman,Times New Roman_MSFontService,sans-serif" font-weight="400" font-size="24" transform="matrix(1.07996 0 0 1.08044 376.752 955)">lesions</text><text font-family="Times New Roman,Times New Roman_MSFontService,sans-serif" font-weight="400" font-size="24" transform="matrix(1.07996 0 0 1.08044 446.95 955)">)</text><text font-family="Times New Roman,Times New Roman_MSFontService,sans-serif" font-weight="400" font-size="24" transform="matrix(1.07996 0 0 1.08044 464.726 955)">who</text><text font-family="Times New Roman,Times New Roman_MSFontService,sans-serif" font-weight="400" font-size="24" transform="matrix(1.07996 0 0 1.08044 516.7 955)">have</text><text font-family="Times New Roman,Times New Roman_MSFontService,sans-serif" font-weight="400" font-size="24" transform="matrix(1.07996 0 0 1.08044 572.996 955)">the</text><text font-family="Times New Roman,Times New Roman_MSFontService,sans-serif" font-weight="400" font-size="24" transform="matrix(1.07996 0 0 1.08044 612.011 955)">CT</text><text font-family="Times New Roman,Times New Roman_MSFontService,sans-serif" font-weight="400" font-size="24" transform="matrix(1.07996 0 0 1.08044 651.998 955)">images</text><text font-family="Times New Roman,Times New Roman_MSFontService,sans-serif" font-weight="400" font-size="24" transform="matrix(1.07996 0 0 1.08044 732.773 955)">taken</text><text font-family="Times New Roman,Times New Roman_MSFontService,sans-serif" font-weight="400" font-size="24" transform="matrix(1.07996 0 0 1.08044 72.3747 985)">before</text><text font-family="Times New Roman,Times New Roman_MSFontService,sans-serif" font-weight="400" font-size="24" transform="matrix(1.07996 0 0 1.08044 151.442 985)">the</text><text font-family="Times New Roman,Times New Roman_MSFontService,sans-serif" font-weight="400" font-size="24" transform="matrix(1.07996 0 0 1.08044 195.951 985)">time</text><text font-family="Times New Roman,Times New Roman_MSFontService,sans-serif" font-weight="400" font-size="24" transform="matrix(1.07996 0 0 1.08044 254.86 985)">of</text><text font-family="Times New Roman,Times New Roman_MSFontService,sans-serif" font-weight="400" font-size="24" transform="matrix(1.07996 0 0 1.08044 289.289 985)">the</text><text font-family="Times New Roman,Times New Roman_MSFontService,sans-serif" font-weight="400" font-size="24" transform="matrix(1.07996 0 0 1.08044 333.797 985)">first</text><text font-family="Times New Roman,Times New Roman_MSFontService,sans-serif" font-weight="400" font-size="24" transform="matrix(1.07996 0 0 1.08044 388.386 985)">treatment</text><text font-family="Times New Roman,Times New Roman_MSFontService,sans-serif" font-weight="400" font-size="24" transform="matrix(1.07996 0 0 1.08044 499.14 985)">as</text><text font-family="Times New Roman,Times New Roman_MSFontService,sans-serif" font-weight="400" font-size="24" transform="matrix(1.07996 0 0 1.08044 533.577 985)">well</text><text font-family="Times New Roman,Times New Roman_MSFontService,sans-serif" font-weight="400" font-size="24" transform="matrix(1.07996 0 0 1.08044 591.053 985)">as</text><text font-family="Times New Roman,Times New Roman_MSFontService,sans-serif" font-weight="400" font-size="24" transform="matrix(1.07996 0 0 1.08044 625.489 985)">the</text><text font-family="Times New Roman,Times New Roman_MSFontService,sans-serif" font-weight="400" font-size="24" transform="matrix(1.07996 0 0 1.08044 670.006 985)">CT</text><text font-family="Times New Roman,Times New Roman_MSFontService,sans-serif" font-weight="400" font-size="24" transform="matrix(1.07996 0 0 1.08044 715.494 985)">images</text><text font-family="Times New Roman,Times New Roman_MSFontService,sans-serif" font-weight="400" font-size="24" transform="matrix(1.07996 0 0 1.08044 72.3747 1017)">obtained</text><text font-family="Times New Roman,Times New Roman_MSFontService,sans-serif" font-weight="400" font-size="24" transform="matrix(1.07996 0 0 1.08044 168.131 1017)">for</text><text font-family="Times New Roman,Times New Roman_MSFontService,sans-serif" font-weight="400" font-size="24" transform="matrix(1.07996 0 0 1.08044 204.85 1017)">the</text><text font-family="Times New Roman,Times New Roman_MSFontService,sans-serif" font-weight="400" font-size="24" transform="matrix(1.07996 0 0 1.08044 243.009 1017)">first</text><text font-family="Times New Roman,Times New Roman_MSFontService,sans-serif" font-weight="400" font-size="24" transform="matrix(1.07996 0 0 1.08044 291.247 1017)">time</text><text font-family="Times New Roman,Times New Roman_MSFontService,sans-serif" font-weight="400" font-size="24" transform="matrix(1.07996 0 0 1.08044 343.805 1017)">after</text><text font-family="Times New Roman,Times New Roman_MSFontService,sans-serif" font-weight="400" font-size="24" transform="matrix(1.07996 0 0 1.08044 397.804 1017)">the</text><text font-family="Times New Roman,Times New Roman_MSFontService,sans-serif" font-weight="400" font-size="24" transform="matrix(1.07996 0 0 1.08044 435.962 1017)">early</text><text font-family="Times New Roman,Times New Roman_MSFontService,sans-serif" font-weight="400" font-size="24" transform="matrix(1.07996 0 0 1.08044 494.28 1017)">treatment</text><text font-family="Times New Roman,Times New Roman_MSFontService,sans-serif" font-weight="400" font-size="24" transform="matrix(1.07996 0 0 1.08044 598.677 1017)">stage</text><text font-family="Times New Roman,Times New Roman_MSFontService,sans-serif" font-weight="400" font-size="24" transform="matrix(1.07996 0 0 1.08044 658.435 1017)">are</text><text font-family="Times New Roman,Times New Roman_MSFontService,sans-serif" font-weight="400" font-size="24" transform="matrix(1.07996 0 0 1.08044 696.594 1017)">selected</text><text font-family="Times New Roman,Times New Roman_MSFontService,sans-serif" font-weight="400" font-size="24" transform="matrix(1.07996 0 0 1.08044 780.111 1017)">.</text><path d="M118.256 527.563 851.552 527.563 851.552 726.276 118.256 726.276Z" stroke="#000000" stroke-width="1.07996" stroke-linejoin="round" stroke-miterlimit="10" fill="none" transform="matrix(1 0 0 1.00044 -51.5967 560.691)"/><text font-family="Times New Roman,Times New Roman_MSFontService,sans-serif" font-weight="700" font-size="24" transform="matrix(1.07996 0 0 1.08044 76.2345 1118)">To</text><text font-family="Times New Roman,Times New Roman_MSFontService,sans-serif" font-weight="700" font-size="24" transform="matrix(1.07996 0 0 1.08044 114.243 1118)">explore</text><text font-family="Times New Roman,Times New Roman_MSFontService,sans-serif" font-weight="700" font-size="24" transform="matrix(1.07996 0 0 1.08044 205.997 1118)">the</text><text font-family="Times New Roman,Times New Roman_MSFontService,sans-serif" font-weight="700" font-size="24" transform="matrix(1.07996 0 0 1.08044 250.7 1118)">relationship</text><text font-family="Times New Roman,Times New Roman_MSFontService,sans-serif" font-weight="700" font-size="24" transform="matrix(1.07996 0 0 1.08044 392.852 1118)">among</text><text font-family="Times New Roman,Times New Roman_MSFontService,sans-serif" font-weight="700" font-size="24" transform="matrix(1.07996 0 0 1.08044 477.873 1118)">∆</text><text font-family="Times New Roman,Times New Roman_MSFontService,sans-serif" font-weight="700" font-size="24" transform="matrix(1.07996 0 0 1.08044 494.073 1118)">D</text><text font-family="Times New Roman,Times New Roman_MSFontService,sans-serif" font-weight="700" font-size="24" transform="matrix(1.07996 0 0 1.08044 512.432 1118)">/</text><text font-family="Times New Roman,Times New Roman_MSFontService,sans-serif" font-weight="700" font-size="24" transform="matrix(1.07996 0 0 1.08044 519.992 1118)">∆</text><text font-family="Times New Roman,Times New Roman_MSFontService,sans-serif" font-weight="700" font-size="24" transform="matrix(1.07996 0 0 1.08044 536.191 1118)">V</text><text font-family="Times New Roman,Times New Roman_MSFontService,sans-serif" font-weight="700" font-size="24" transform="matrix(1.07996 0 0 1.08044 554.551 1118)">,</text><text font-family="Times New Roman,Times New Roman_MSFontService,sans-serif" font-weight="700" font-size="24" transform="matrix(1.07996 0 0 1.08044 567.475 1118)">pathologic</text><text font-family="Times New Roman,Times New Roman_MSFontService,sans-serif" font-weight="700" font-size="24" transform="matrix(1.07996 0 0 1.08044 692.823 1118)">response</text><text font-family="Times New Roman,Times New Roman_MSFontService,sans-serif" font-weight="700" font-size="24" transform="matrix(1.07996 0 0 1.08044 76.2345 1150)">and</text><text font-family="Times New Roman,Times New Roman_MSFontService,sans-serif" font-weight="700" font-size="24" transform="matrix(1.07996 0 0 1.08044 124.473 1150)">OS</text><text font-family="Times New Roman,Times New Roman_MSFontService,sans-serif" font-weight="700" font-size="24" transform="matrix(1.07996 0 0 1.08044 159.032 1150)">:</text><text font-family="Times New Roman,Times New Roman_MSFontService,sans-serif" font-weight="400" font-size="24" transform="matrix(1.07996 0 0 1.08044 76.2345 1212)">82</text><text font-family="Times New Roman,Times New Roman_MSFontService,sans-serif" font-weight="400" font-size="24" transform="matrix(1.07996 0 0 1.08044 102.154 1212)">/</text><text font-family="Times New Roman,Times New Roman_MSFontService,sans-serif" font-weight="400" font-size="24" transform="matrix(1.07996 0 0 1.08044 109.354 1212)">136</text><text font-family="Times New Roman,Times New Roman_MSFontService,sans-serif" font-weight="400" font-size="24" transform="matrix(1.07996 0 0 1.08044 154.712 1212)">patients</text><text font-family="Times New Roman,Times New Roman_MSFontService,sans-serif" font-weight="400" font-size="24" transform="matrix(1.07996 0 0 1.08044 241.83 1212)">are</text><text font-family="Times New Roman,Times New Roman_MSFontService,sans-serif" font-weight="400" font-size="24" transform="matrix(1.07996 0 0 1.08044 279.988 1212)">included</text><text font-family="Times New Roman,Times New Roman_MSFontService,sans-serif" font-weight="400" font-size="24" transform="matrix(1.07996 0 0 1.08044 369.266 1212)">.</text><text font-family="Arial,Arial_MSFontService,sans-serif" font-weight="400" font-size="24" transform="matrix(1.07996 0 0 1.08044 128.073 1242)">•</text><text font-family="Times New Roman,Times New Roman_MSFontService,sans-serif" font-weight="400" font-size="24" transform="matrix(1.07996 0 0 1.08044 160.472 1242)">35</text><text font-family="Times New Roman,Times New Roman_MSFontService,sans-serif" font-weight="400" font-size="24" transform="matrix(1.07996 0 0 1.08044 192.871 1242)">patients</text><text font-family="Times New Roman,Times New Roman_MSFontService,sans-serif" font-weight="400" font-size="24" transform="matrix(1.07996 0 0 1.08044 279.988 1242)">have</text><text font-family="Times New Roman,Times New Roman_MSFontService,sans-serif" font-weight="400" font-size="24" transform="matrix(1.07996 0 0 1.08044 335.426 1242)">pathological</text><text font-family="Times New Roman,Times New Roman_MSFontService,sans-serif" font-weight="400" font-size="24" transform="matrix(1.07996 0 0 1.08044 470.062 1242)">responses</text><text font-family="Times New Roman,Times New Roman_MSFontService,sans-serif" font-weight="400" font-size="24" transform="matrix(1.07996 0 0 1.08044 570.858 1242)">.</text><text font-family="Arial,Arial_MSFontService,sans-serif" font-weight="400" font-size="24" transform="matrix(1.07996 0 0 1.08044 128.073 1274)">•</text><text font-family="Times New Roman,Times New Roman_MSFontService,sans-serif" font-weight="400" font-size="24" transform="matrix(1.07996 0 0 1.08044 160.472 1274)">47</text><text font-family="Times New Roman,Times New Roman_MSFontService,sans-serif" font-weight="400" font-size="24" transform="matrix(1.07996 0 0 1.08044 192.871 1274)">patients</text><text font-family="Times New Roman,Times New Roman_MSFontService,sans-serif" font-weight="400" font-size="24" transform="matrix(1.07996 0 0 1.08044 279.988 1274)">have</text><text font-family="Times New Roman,Times New Roman_MSFontService,sans-serif" font-weight="400" font-size="24" transform="matrix(1.07996 0 0 1.08044 335.426 1274)">follow</text><text font-family="Times New Roman,Times New Roman_MSFontService,sans-serif" font-weight="400" font-size="24" transform="matrix(1.07996 0 0 1.08044 403.104 1274)">-</text><text font-family="Times New Roman,Times New Roman_MSFontService,sans-serif" font-weight="400" font-size="24" transform="matrix(1.07996 0 0 1.08044 411.744 1274)">up</text><text font-family="Times New Roman,Times New Roman_MSFontService,sans-serif" font-weight="400" font-size="24" transform="matrix(1.07996 0 0 1.08044 444.143 1274)">records</text><text font-family="Times New Roman,Times New Roman_MSFontService,sans-serif" font-weight="400" font-size="24" transform="matrix(1.07996 0 0 1.08044 520.461 1274)">.</text><path d="M936.87 192.774 1321.34 192.774 1321.34 360.168 936.87 360.168Z" stroke="#000000" stroke-width="1.07996" stroke-linejoin="round" stroke-miterlimit="10" fill="none" transform="matrix(1 0 0 1.00044 -51.5967 560.691)"/><text font-family="Times New Roman,Times New Roman_MSFontService,sans-serif" font-weight="400" font-size="24" transform="matrix(1.07996 0 0 1.08044 895.353 783)">Patients</text><text font-family="Times New Roman,Times New Roman_MSFontService,sans-serif" font-weight="400" font-size="24" transform="matrix(1.07996 0 0 1.08044 983.91 783)">excluded</text><text font-family="Times New Roman,Times New Roman_MSFontService,sans-serif" font-weight="400" font-size="24" transform="matrix(1.07996 0 0 1.08044 1077.51 783)">:</text><text font-family="Times New Roman,Times New Roman_MSFontService,sans-serif" font-weight="400" font-size="24" transform="matrix(1.07996 0 0 1.08044 895.353 815)">49</text><text font-family="Times New Roman,Times New Roman_MSFontService,sans-serif" font-weight="400" font-size="24" transform="matrix(1.07996 0 0 1.08044 921.272 815)">/</text><text font-family="Times New Roman,Times New Roman_MSFontService,sans-serif" font-weight="400" font-size="24" transform="matrix(1.07996 0 0 1.08044 928.473 815)">185</text><text font-family="Times New Roman,Times New Roman_MSFontService,sans-serif" font-weight="400" font-size="24" transform="matrix(1.07996 0 0 1.08044 976.732 815)">patients</text><text font-family="Times New Roman,Times New Roman_MSFontService,sans-serif" font-weight="400" font-size="24" transform="matrix(1.07996 0 0 1.08044 1066.76 815)">lacked</text><text font-family="Times New Roman,Times New Roman_MSFontService,sans-serif" font-weight="400" font-size="24" transform="matrix(1.07996 0 0 1.08044 1143.83 815)">CT</text><text font-family="Times New Roman,Times New Roman_MSFontService,sans-serif" font-weight="400" font-size="24" transform="matrix(1.07996 0 0 1.08044 1185.86 815)">images</text><text font-family="Times New Roman,Times New Roman_MSFontService,sans-serif" font-weight="400" font-size="24" transform="matrix(1.07996 0 0 1.08044 895.353 846)">taken</text><text font-family="Times New Roman,Times New Roman_MSFontService,sans-serif" font-weight="400" font-size="24" transform="matrix(1.07996 0 0 1.08044 962.967 846)">before</text><text font-family="Times New Roman,Times New Roman_MSFontService,sans-serif" font-weight="400" font-size="24" transform="matrix(1.07996 0 0 1.08044 1040.66 846)">the</text><text font-family="Times New Roman,Times New Roman_MSFontService,sans-serif" font-weight="400" font-size="24" transform="matrix(1.07996 0 0 1.08044 1083.8 846)">time</text><text font-family="Times New Roman,Times New Roman_MSFontService,sans-serif" font-weight="400" font-size="24" transform="matrix(1.07996 0 0 1.08044 1141.34 846)">of</text><text font-family="Times New Roman,Times New Roman_MSFontService,sans-serif" font-weight="400" font-size="24" transform="matrix(1.07996 0 0 1.08044 1174.4 846)">the</text><text font-family="Times New Roman,Times New Roman_MSFontService,sans-serif" font-weight="400" font-size="24" transform="matrix(1.07996 0 0 1.08044 1217.55 846)">first</text><text font-family="Times New Roman,Times New Roman_MSFontService,sans-serif" font-weight="400" font-size="24" transform="matrix(1.07996 0 0 1.08044 895.353 877)">treatment</text><text font-family="Times New Roman,Times New Roman_MSFontService,sans-serif" font-weight="400" font-size="24" transform="matrix(1.07996 0 0 1.08044 1021.62 877)">or</text><text font-family="Times New Roman,Times New Roman_MSFontService,sans-serif" font-weight="400" font-size="24" transform="matrix(1.07996 0 0 1.08044 1071.58 877)">after</text><text font-family="Times New Roman,Times New Roman_MSFontService,sans-serif" font-weight="400" font-size="24" transform="matrix(1.07996 0 0 1.08044 1147.43 877)">the</text><text font-family="Times New Roman,Times New Roman_MSFontService,sans-serif" font-weight="400" font-size="24" transform="matrix(1.07996 0 0 1.08044 1207.46 877)">early</text><text font-family="Times New Roman,Times New Roman_MSFontService,sans-serif" font-weight="400" font-size="24" transform="matrix(1.07996 0 0 1.08044 895.353 908)">treatment</text><text font-family="Times New Roman,Times New Roman_MSFontService,sans-serif" font-weight="400" font-size="24" transform="matrix(1.07996 0 0 1.08044 999.75 908)">stage</text><text font-family="Times New Roman,Times New Roman_MSFontService,sans-serif" font-weight="400" font-size="24" transform="matrix(1.07996 0 0 1.08044 1053.02 908)">.</text><path d="M936.87 449.805 1321.34 449.805 1321.34 554.562 936.87 554.562Z" stroke="#000000" stroke-width="1.07996" stroke-linejoin="round" stroke-miterlimit="10" fill="none" transform="matrix(1 0 0 1.00044 -51.5967 560.691)"/><text font-family="Times New Roman,Times New Roman_MSFontService,sans-serif" font-weight="400" font-size="24" transform="matrix(1.07996 0 0 1.08044 895.353 1040)">Patients</text><text font-family="Times New Roman,Times New Roman_MSFontService,sans-serif" font-weight="400" font-size="24" transform="matrix(1.07996 0 0 1.08044 983.91 1040)">excluded</text><text font-family="Times New Roman,Times New Roman_MSFontService,sans-serif" font-weight="400" font-size="24" transform="matrix(1.07996 0 0 1.08044 1077.51 1040)">:</text><text font-family="Times New Roman,Times New Roman_MSFontService,sans-serif" font-weight="400" font-size="24" transform="matrix(1.07996 0 0 1.08044 895.353 1072)">54</text><text font-family="Times New Roman,Times New Roman_MSFontService,sans-serif" font-weight="400" font-size="24" transform="matrix(1.07996 0 0 1.08044 921.272 1072)">/</text><text font-family="Times New Roman,Times New Roman_MSFontService,sans-serif" font-weight="400" font-size="24" transform="matrix(1.07996 0 0 1.08044 928.473 1072)">136</text><text font-family="Times New Roman,Times New Roman_MSFontService,sans-serif" font-weight="400" font-size="24" transform="matrix(1.07996 0 0 1.08044 978.748 1072)">patients</text><text font-family="Times New Roman,Times New Roman_MSFontService,sans-serif" font-weight="400" font-size="24" transform="matrix(1.07996 0 0 1.08044 1070.78 1072)">lacked</text><text font-family="Times New Roman,Times New Roman_MSFontService,sans-serif" font-weight="400" font-size="24" transform="matrix(1.07996 0 0 1.08044 1149.86 1072)">pathologic</text><text font-family="Times New Roman,Times New Roman_MSFontService,sans-serif" font-weight="400" font-size="24" transform="matrix(1.07996 0 0 1.08044 895.353 1103)">response</text><text font-family="Times New Roman,Times New Roman_MSFontService,sans-serif" font-weight="400" font-size="24" transform="matrix(1.07996 0 0 1.08044 992.55 1103)">or</text><text font-family="Times New Roman,Times New Roman_MSFontService,sans-serif" font-weight="400" font-size="24" transform="matrix(1.07996 0 0 1.08044 1020.63 1103)">follow</text><text font-family="Times New Roman,Times New Roman_MSFontService,sans-serif" font-weight="400" font-size="24" transform="matrix(1.07996 0 0 1.08044 1088.31 1103)">-</text><text font-family="Times New Roman,Times New Roman_MSFontService,sans-serif" font-weight="400" font-size="24" transform="matrix(1.07996 0 0 1.08044 1096.95 1103)">up</text><text font-family="Times New Roman,Times New Roman_MSFontService,sans-serif" font-weight="400" font-size="24" transform="matrix(1.07996 0 0 1.08044 1129.34 1103)">records</text><text font-family="Times New Roman,Times New Roman_MSFontService,sans-serif" font-weight="400" font-size="24" transform="matrix(1.07996 0 0 1.08044 1205.67 1103)">.</text><path d="M851.558 151.195 877.616 151.465 903.409 152.14 928.865 153.221 953.714 154.706 977.686 156.597 1000.71 158.825 1022.45 161.324 1032.86 162.675 1042.85 164.093 1052.38 165.579 1061.56 167.065 1070.21 168.687 1078.46 170.308 1086.09 171.998 1093.26 173.688 1099.89 175.448 1105.92 177.275 1111.34 179.104 1116.08 180.936 1120.24 182.842 1123.69 184.779 1125.66 186.723 1124.9 187.491 1122.99 185.598 1123.1 185.685 1119.73 183.795 1119.76 183.814 1115.65 181.924 1115.68 181.938 1110.96 180.115 1110.98 180.123 1105.58 178.301 1105.59 178.307 1099.59 176.484 1099.6 176.489 1092.99 174.734 1093 174.737 1085.85 173.05 1085.85 173.051 1078.23 171.365 1078.24 171.367 1070.01 169.747 1070.01 169.748 1061.37 168.128 1061.38 168.13 1052.2 166.645 1052.21 166.646 1042.69 165.161 1042.7 165.162 1032.71 163.744 1032.71 163.745 1022.32 162.395 1022.33 162.396 1000.59 159.899 1000.6 159.9 977.586 157.673 977.596 157.674 953.634 155.784 953.645 155.784 928.805 154.299 928.814 154.3 903.368 153.22 903.377 153.22 877.592 152.545 877.601 152.545 851.547 152.275ZM1127.88 183.37 1129.59 192.878 1120.96 188.535Z" transform="matrix(1 0 0 1.00044 -51.5967 560.691)"/><path d="M1130 360.519 1129.51 361.085 1128.14 361.694 1126.12 362.182 1123.39 362.66 1120 363.134 1115.87 363.608 1111.14 364.081 1105.73 364.554 1099.73 365.027 1093.11 365.5 1085.95 365.905 1085.95 365.905 1078.32 366.377 1070.08 366.782 1061.44 367.188 1052.26 367.593 1042.67 367.93 1042.67 367.93 1032.75 368.335 1022.35 368.673 1000.61 369.28 977.593 369.888 953.628 370.361 928.787 370.698 903.339 370.968 877.551 371.171 858.752 371.195 858.751 370.115 877.548 370.091 877.545 370.091 903.327 369.888 928.773 369.618 953.612 369.281 953.608 369.281 977.57 368.808 977.567 368.808 1000.58 368.201 1022.32 367.593 1022.31 367.593 1032.71 367.256 1032.7 367.256 1042.63 366.851 1052.21 366.513 1052.21 366.514 1061.39 366.109 1070.03 365.704 1078.26 365.299 1078.25 365.299 1085.88 364.826 1093.04 364.421 1093.03 364.422 1099.64 363.949 1099.64 363.95 1105.65 363.477 1105.65 363.477 1111.05 363.005 1111.04 363.006 1115.77 362.533 1115.75 362.534 1119.87 362.061 1119.86 362.064 1123.23 361.591 1123.22 361.594 1125.92 361.122 1125.89 361.128 1127.84 360.656 1127.74 360.688 1128.96 360.148 1128.77 360.289 1129.18 359.817ZM860.197 374.974 851.552 370.664 860.187 366.334Z" transform="matrix(1 0 0 1.00044 -51.5967 560.691)"/><path d="M851.562 370.428 877.626 370.901 903.427 372.252 928.892 374.346 953.748 377.317 977.727 380.897 1000.76 385.153 1022.51 390.017 1032.92 392.653 1042.92 395.356 1052.45 398.262 1061.64 401.235 1070.3 404.277 1078.55 407.457 1086.2 410.704 1093.37 414.087 1100 417.472 1106.04 420.996 1111.46 424.524 1116.22 428.125 1120.37 431.802 1123.78 435.49 1126.53 439.277 1128.34 443.425 1127.34 443.854 1125.57 439.761 1125.63 439.863 1122.93 436.151 1122.97 436.2 1119.6 432.555 1119.63 432.593 1115.52 428.948 1115.55 428.974 1110.82 425.397 1110.85 425.419 1105.45 421.909 1105.47 421.923 1099.47 418.413 1099.5 418.427 1092.88 415.052 1092.89 415.06 1085.74 411.685 1085.76 411.693 1078.13 408.454 1078.15 408.461 1069.92 405.288 1069.93 405.294 1061.29 402.257 1061.3 402.261 1052.12 399.291 1052.13 399.293 1042.62 396.391 1042.63 396.396 1032.64 393.696 1032.65 393.698 1022.26 391.066 1022.27 391.069 1000.54 386.209 1000.56 386.214 977.54 381.961 977.558 381.964 953.597 378.387 953.612 378.389 928.773 375.42 928.794 375.421 903.346 373.329 903.363 373.33 877.578 371.98 877.597 371.98 851.543 371.508ZM1131.67 441.194 1129.59 450.624 1123.29 443.292Z" transform="matrix(1 0 0 1.00044 -51.5967 560.691)"/><path d="M1130.12 554.627 1129.71 558.062 1128.46 561.541 1126.46 564.992 1123.71 568.424 1120.29 571.776 1116.13 575.045 1111.38 578.304 1105.96 581.561 1099.92 584.678 1093.29 587.791 1086.12 590.837 1078.47 593.745 1070.22 596.653 1061.57 599.425 1052.38 602.128 1042.78 604.696 1032.85 607.195 1022.44 609.561 1000.7 613.951 977.661 617.801 953.683 621.044 928.829 623.678 903.367 625.637 877.565 626.852 858.759 627.116 858.744 626.036 877.542 625.773 877.523 625.773 903.307 624.558 903.291 624.559 928.738 622.602 928.723 622.603 953.562 619.97 953.546 619.972 977.509 616.732 977.491 616.734 1000.51 612.888 1000.49 612.891 1022.22 608.504 1022.21 608.506 1032.61 606.144 1032.59 606.146 1042.52 603.65 1042.51 603.652 1052.09 601.087 1052.08 601.09 1061.26 598.39 1061.25 598.393 1069.89 595.627 1069.87 595.632 1078.11 592.729 1078.1 592.733 1085.72 589.831 1085.7 589.839 1092.86 586.801 1092.84 586.81 1099.46 583.705 1099.44 583.713 1105.44 580.609 1105.41 580.626 1110.81 577.386 1110.79 577.403 1115.51 574.163 1115.48 574.185 1119.6 570.945 1119.56 570.984 1122.93 567.676 1122.88 567.725 1125.58 564.35 1125.54 564.416 1127.49 561.041 1127.46 561.129 1128.67 557.754 1128.65 557.873 1129.05 554.498ZM860.251 630.876 851.552 626.678 860.13 622.237Z" transform="matrix(1 0 0 1.00044 -51.5967 560.691)"/><path d="M104.217 72.8977 1329.98 72.8977 1329.98 755.436 104.217 755.436Z" stroke="#000000" stroke-width="1.43995" stroke-miterlimit="8" fill="none" transform="matrix(1 0 0 1.00044 -51.5967 560.691)"/></g></g></g></g><text font-family="Times New Roman,Times New Roman_MSFontService,sans-serif" font-weight="400" font-size="24" transform="translate(529.869 -55)">(a) The analysis processes.</text><text font-family="Times New Roman,Times New Roman_MSFontService,sans-serif" font-weight="400" font-size="24" transform="translate(516.167 621)">(b) Patient inclusion flowchart.</text><rect x="17.5001" y="-82.5001" width="1290" height="1421" stroke="#000000" stroke-width="1.33333" stroke-miterlimit="8" fill="none"/></g></svg>